<svg xmlns="http://www.w3.org/2000/svg" width="19.715" height="20" viewBox="0 0 19.715 20">
  <g id="calendar" transform="translate(-988.614 -601.5)">
    <path id="Path_20" data-name="Path 20" d="M1000.7,605.721a1.381,1.381,0,0,0,1.385-1.384v-1.449a1.386,1.386,0,1,0-2.771,0v1.449a1.38,1.38,0,0,0,1.386,1.384Zm0,0" transform="translate(2.676)"/>
    <path id="Path_21" data-name="Path 21" d="M1008.306,603.427h-2.79v.705a2.112,2.112,0,1,1-4.225,0v-.705h-5.634v.705a2.112,2.112,0,1,1-4.225,0v-.705l-2.819-.035v17.635h18.307l1.407,0Zm-1.385,16.2h-16.9V608.357h16.9Zm0,0" transform="translate(0 0.473)"/>
    <path id="Path_22" data-name="Path 22" d="M992.818,605.721a1.383,1.383,0,0,0,1.387-1.384v-1.449a1.386,1.386,0,1,0-2.772,0v1.449a1.381,1.381,0,0,0,1.385,1.384Zm0,0" transform="translate(0.705)"/>
    <rect id="Rectangle_25" data-name="Rectangle 25" width="2.218" height="1.957" transform="translate(995.662 610.342)"/>
    <rect id="Rectangle_26" data-name="Rectangle 26" width="2.222" height="1.957" transform="translate(999.25 610.342)"/>
    <rect id="Rectangle_27" data-name="Rectangle 27" width="2.218" height="1.957" transform="translate(1002.576 610.342)"/>
    <rect id="Rectangle_28" data-name="Rectangle 28" width="2.218" height="1.957" transform="translate(995.662 613.594)"/>
    <rect id="Rectangle_29" data-name="Rectangle 29" width="2.222" height="1.957" transform="translate(999.25 613.594)"/>
    <rect id="Rectangle_30" data-name="Rectangle 30" width="2.218" height="1.957" transform="translate(1002.576 613.594)"/>
    <rect id="Rectangle_31" data-name="Rectangle 31" width="2.218" height="1.957" transform="translate(995.662 616.91)"/>
    <rect id="Rectangle_32" data-name="Rectangle 32" width="2.214" height="1.957" transform="translate(992.138 613.594)"/>
    <rect id="Rectangle_33" data-name="Rectangle 33" width="2.214" height="1.957" transform="translate(992.138 616.91)"/>
    <rect id="Rectangle_34" data-name="Rectangle 34" width="2.222" height="1.957" transform="translate(999.25 616.91)"/>
    <rect id="Rectangle_35" data-name="Rectangle 35" width="2.218" height="1.957" transform="translate(1002.576 616.91)"/>
  </g>
</svg>
