<svg xmlns="http://www.w3.org/2000/svg" width="32" height="32" viewBox="0 0 32 32">
  <g id="call_circle" transform="translate(-171 -272)">
    <g id="Group_109" data-name="Group 109" transform="translate(-50 140)">
      <path id="Path_140" data-name="Path 140" d="M237,132.5A15.5,15.5,0,1,1,221.5,148,15.5,15.5,0,0,1,237,132.5m0-.5a16,16,0,1,0,16,16,16,16,0,0,0-16-16Z"/>
    </g>
    <path id="Path_152" data-name="Path 152" d="M242,150.2h0a.561.561,0,0,0-.9,0l-1.6,1.7a1.507,1.507,0,0,1-1.8.2c-.9-.7-1.8-1.4-2.7-2.2a15.913,15.913,0,0,1-2-2.4,1.506,1.506,0,0,1,.1-1.8l1.7-1.7h0a.561.561,0,0,0,0-.9l-2.9-2.9h0a.561.561,0,0,0-.9,0l-.9.9a4.077,4.077,0,0,0-1,4.2,14.193,14.193,0,0,0,1.7,3.5,21.465,21.465,0,0,0,2.3,2.8,18.851,18.851,0,0,0,3.1,2.5,13.841,13.841,0,0,0,3.9,1.8,4.357,4.357,0,0,0,3.9-1.1l.8-.8h0a.561.561,0,0,0,0-.9Z" transform="translate(-50 140)"/>
  </g>
</svg>
