<svg xmlns="http://www.w3.org/2000/svg" width="20.875" height="20" viewBox="0 0 20.875 20">
  <path id="chat" d="M955.184,528.25l-15.492.033a2.694,2.694,0,0,0-2.692,2.69v9.594a2.7,2.7,0,0,0,2.692,2.692h2.754V547.8a.455.455,0,0,0,.291.423.465.465,0,0,0,.163.03.448.448,0,0,0,.335-.149l4.4-4.846,7.545-.03a2.694,2.694,0,0,0,2.692-2.69v-9.594a2.7,2.7,0,0,0-2.692-2.692Zm-13.646,4.538h5.9a.454.454,0,1,1,0,.908h-5.9a.454.454,0,1,1,0-.908Zm11.8,6.354h-11.8a.454.454,0,1,1,0-.908h11.8a.454.454,0,1,1,0,.908Zm0-2.723h-11.8a.454.454,0,1,1,0-.908h11.8a.454.454,0,1,1,0,.908Zm0,0" transform="translate(-937 -528.25)"/>
</svg>
