<svg xmlns="http://www.w3.org/2000/svg" width="20.805" height="20" viewBox="0 0 20.805 20">
  <g id="clock" transform="translate(-876.001 -633.452)">
    <path id="Path_50" data-name="Path 50" d="M885.855,634.129a9.114,9.114,0,0,0-6.481,15.519c-.288.373-.733.938-1.344,1.723a.983.983,0,0,0,1.55,1.21s.822-1.057,1.319-1.694a9.073,9.073,0,0,0,9.919,0c.5.636,1.316,1.694,1.316,1.694a.994.994,0,0,0,.779.375.979.979,0,0,0,.771-1.585c-.607-.785-1.052-1.351-1.345-1.723a9.113,9.113,0,0,0-6.484-15.519Zm-7.356,9.114a7.359,7.359,0,1,1,7.36,7.36,7.369,7.369,0,0,1-7.36-7.36Zm0,0" transform="translate(0.546 0.497)"/>
    <g id="Group_28" data-name="Group 28" transform="translate(876.001 633.452)">
      <path id="Path_51" data-name="Path 51" d="M885.178,640l.007-2.554a.585.585,0,1,0-1.17,0l0,2.54a1.368,1.368,0,0,0-.7.72l-4.241-.01a.586.586,0,0,0,0,1.172l4.293.007A1.376,1.376,0,1,0,885.178,640Zm0,0" transform="translate(-874.177 -630.952)"/>
      <path id="Path_52" data-name="Path 52" d="M877.057,634.489a3.569,3.569,0,0,0-.186,4.872l5.061-5.017a3.571,3.571,0,0,0-4.875.146Zm0,0" transform="translate(-876.001 -633.452)"/>
    </g>
    <path id="Path_53" data-name="Path 53" d="M889.456,634.488a3.574,3.574,0,0,0-4.875-.146l5.056,5.017a3.571,3.571,0,0,0-.18-4.872Zm0,0" transform="translate(6.296 0)"/>
  </g>
</svg>
