<svg xmlns="http://www.w3.org/2000/svg" width="32" height="32" viewBox="0 0 32 32">
  <g id="meet_circle" transform="translate(-271 -272)">
    <g id="Group_111" data-name="Group 111" transform="translate(-50 140)">
      <path id="Path_142" data-name="Path 142" d="M337,132.5A15.5,15.5,0,1,1,321.5,148,15.5,15.5,0,0,1,337,132.5m0-.5a16,16,0,1,0,16,16,16,16,0,0,0-16-16Z"/>
    </g>
    <g id="Group_121" data-name="Group 121" transform="translate(-50 140)">
      <path id="Path_157" data-name="Path 157" d="M340.9,143.4a1.11,1.11,0,0,0,1.1-1.1v-1.2a1.1,1.1,0,1,0-2.2,0v1.2a1.11,1.11,0,0,0,1.1,1.1Z"/>
      <path id="Path_158" data-name="Path 158" d="M344.9,141.9h-2.2v.6a1.7,1.7,0,0,1-3.4,0v-.6h-4.5v.6a1.7,1.7,0,0,1-3.4,0v-.6h-2.3V156h15.7Zm-1.1,13H330.3v-9h13.5Z"/>
      <path id="Path_159" data-name="Path 159" d="M333,143.4a1.11,1.11,0,0,0,1.1-1.1v-1.2a1.1,1.1,0,1,0-2.2,0v1.2A1.11,1.11,0,0,0,333,143.4Z"/>
      <rect id="Rectangle_121" data-name="Rectangle 121" width="1.8" height="1.6" transform="translate(334.8 147.1)"/>
      <rect id="Rectangle_122" data-name="Rectangle 122" width="1.8" height="1.6" transform="translate(337.6 147.1)"/>
      <rect id="Rectangle_123" data-name="Rectangle 123" width="1.8" height="1.6" transform="translate(340.3 147.1)"/>
      <rect id="Rectangle_124" data-name="Rectangle 124" width="1.8" height="1.6" transform="translate(334.8 149.7)"/>
      <rect id="Rectangle_125" data-name="Rectangle 125" width="1.8" height="1.6" transform="translate(337.6 149.7)"/>
      <rect id="Rectangle_126" data-name="Rectangle 126" width="1.8" height="1.6" transform="translate(340.3 149.7)"/>
      <rect id="Rectangle_127" data-name="Rectangle 127" width="1.8" height="1.6" transform="translate(334.8 152.3)"/>
      <rect id="Rectangle_128" data-name="Rectangle 128" width="1.8" height="1.6" transform="translate(331.9 149.7)"/>
      <rect id="Rectangle_129" data-name="Rectangle 129" width="1.8" height="1.6" transform="translate(331.9 152.3)"/>
      <rect id="Rectangle_130" data-name="Rectangle 130" width="1.8" height="1.6" transform="translate(337.6 152.3)"/>
      <rect id="Rectangle_131" data-name="Rectangle 131" width="1.8" height="1.6" transform="translate(340.3 152.3)"/>
    </g>
  </g>
</svg>
