<svg xmlns="http://www.w3.org/2000/svg" xmlns:xlink="http://www.w3.org/1999/xlink" width="32" height="32" viewBox="0 0 32 32">
  <defs>
    <clipPath id="clip-path">
      <rect id="Rectangle_119" data-name="Rectangle 119" width="16" height="16" transform="translate(129 140)"/>
    </clipPath>
  </defs>
  <g id="note_circle" transform="translate(-71 -272)">
    <g id="Group_107" data-name="Group 107" transform="translate(-50 140)">
      <path id="Path_138" data-name="Path 138" d="M137,132.5A15.5,15.5,0,1,1,121.5,148,15.5,15.5,0,0,1,137,132.5m0-.5a16,16,0,1,0,16,16,16,16,0,0,0-16-16Z"/>
    </g>
    <g id="Group_118" data-name="Group 118" transform="translate(-50 140)">
      <path id="Path_145" data-name="Path 145" d="M144.5,149.7a.43.43,0,0,0-.4.4v3.7a1.324,1.324,0,0,1-1.3,1.3H131a1.324,1.324,0,0,1-1.3-1.3V142.9a1.324,1.324,0,0,1,1.3-1.3h3.7a.4.4,0,1,0,0-.8H131a2.051,2.051,0,0,0-2.1,2.1v10.9a2.051,2.051,0,0,0,2.1,2.1h11.8a2.051,2.051,0,0,0,2.1-2.1v-3.7c.1-.2-.1-.4-.4-.4Z"/>
      <path id="Path_146" data-name="Path 146" d="M135.6,147.5l6.1-6.1,2,2-6.1,6.1Z"/>
      <g id="Group_117" data-name="Group 117">
        <g id="Group_114" data-name="Group 114">
          <g id="Group_113" data-name="Group 113" clip-path="url(#clip-path)">
            <path id="Path_147" data-name="Path 147" d="M134.6,150.5l2.2-.6-1.6-1.6Z"/>
          </g>
        </g>
        <g id="Group_116" data-name="Group 116">
          <g id="Group_115" data-name="Group 115" clip-path="url(#clip-path)">
            <path id="Path_148" data-name="Path 148" d="M144.2,140.3a1.087,1.087,0,0,0-1.5,0l-.4.4,2,2,.4-.4a1.087,1.087,0,0,0,0-1.5Z"/>
          </g>
        </g>
      </g>
    </g>
  </g>
</svg>
