<svg xmlns="http://www.w3.org/2000/svg" width="20.107" height="20" viewBox="0 0 20.107 20">
  <g id="note" transform="translate(-829.5 -601.543)">
    <path id="Path_31" data-name="Path 31" d="M849.03,613.5a.526.526,0,0,0-.526.527v4.68a1.584,1.584,0,0,1-1.581,1.581H832.135a1.583,1.583,0,0,1-1.581-1.581V604.971a1.582,1.582,0,0,1,1.581-1.581h4.679a.527.527,0,1,0,0-1.054h-4.679a2.637,2.637,0,0,0-2.635,2.635V618.7a2.639,2.639,0,0,0,2.635,2.635h14.787a2.639,2.639,0,0,0,2.634-2.635v-4.68a.526.526,0,0,0-.527-.527Zm0,0" transform="translate(0 0.203)"/>
    <path id="Path_32" data-name="Path 32" d="M836.057,610.583l7.7-7.695,2.481,2.482-7.695,7.695Zm0,0" transform="translate(1.683 0.345)"/>
    <g id="Group_15" data-name="Group 15" transform="translate(836.485 601.543)">
      <path id="Path_33" data-name="Path 33" d="M835.058,612.545l2.743-.759-1.983-1.983Zm0,0" transform="translate(-835.058 -599.423)"/>
      <path id="Path_34" data-name="Path 34" d="M845.2,601.929a1.318,1.318,0,0,0-1.862,0l-.559.559,2.482,2.482.558-.559a1.319,1.319,0,0,0,0-1.864Zm0,0" transform="translate(-833.077 -601.543)"/>
    </g>
  </g>
</svg>
