<svg xmlns="http://www.w3.org/2000/svg" xmlns:xlink="http://www.w3.org/1999/xlink" width="15.938" height="20" viewBox="0 0 15.938 20">
  <defs>
    <clipPath id="clip-path">
      <rect id="Rectangle_73" data-name="Rectangle 73" width="15.937" height="20"/>
    </clipPath>
  </defs>
  <g id="notification" transform="translate(-1411.171 -134.55)">
    <path id="Path_85" data-name="Path 85" d="M1441.5,240.608a3.021,3.021,0,0,0,5.531,0Zm0,0" transform="translate(-25.126 -87.862)"/>
    <g id="Group_59" data-name="Group 59" transform="translate(1411.171 134.55)">
      <g id="Group_58" data-name="Group 58" transform="translate(0 0)" clip-path="url(#clip-path)">
        <path id="Path_86" data-name="Path 86" d="M1446.413,136.461a6.8,6.8,0,0,1,2.321.406v-.089a2.231,2.231,0,0,0-2.228-2.228h-.185a2.231,2.231,0,0,0-2.228,2.228v.088a6.814,6.814,0,0,1,2.32-.405Zm0,0" transform="translate(-1438.445 -134.55)"/>
        <path id="Path_87" data-name="Path 87" d="M1426.67,166.467h-14.647a.6.6,0,0,1-.589-.458.569.569,0,0,1,.314-.648,3.111,3.111,0,0,0,.946-1.286,14.858,14.858,0,0,0,.986-5.879,5.666,5.666,0,0,1,11.333-.022c0,.007,0,.015,0,.022a14.856,14.856,0,0,0,.986,5.879,3.108,3.108,0,0,0,.946,1.286.569.569,0,0,1,.314.648.6.6,0,0,1-.589.458Zm.282-1.1h0Zm0,0" transform="translate(-1411.378 -149.445)"/>
      </g>
    </g>
  </g>
</svg>
