<svg xmlns="http://www.w3.org/2000/svg" width="20.167" height="20" viewBox="0 0 20.167 20">
  <path id="phone" d="M955.7,613.387a24.68,24.68,0,0,1-2.52-2.94,1.717,1.717,0,0,1,.178-2.233l2.105-2.105,0,0a.81.81,0,0,0,0-1.146l-3.585-3.585,0,0a.81.81,0,0,0-1.146,0l-1.135,1.135a5.1,5.1,0,0,0-1.276,5.211,17.881,17.881,0,0,0,2.182,4.415,23.576,23.576,0,0,0,6.788,6.653A16.942,16.942,0,0,0,962.21,621a5.1,5.1,0,0,0,4.817-1.378l.969-.964v.007l0,0a.809.809,0,0,0,0-1.146l-3.591-3.6,0,0a.809.809,0,0,0-1.145,0l-2.036,2.067a1.728,1.728,0,0,1-2.207.191A24.373,24.373,0,0,1,955.7,613.387Z" transform="translate(-948.068 -601.138)"/>
</svg>
